HIERARCHY
ROOT Hips
{
	OFFSET 0.000000 0.000000 0.000000
	CHANNELS 6 Xposition Yposition Zposition Yrotation Xrotation Zrotation
	JOINT Chest
	{
		OFFSET 0.000000 -0.009281 11.569106
		CHANNELS 3 Yrotation Xrotation Zrotation
		JOINT Chest2
		{
			OFFSET -0.000000 0.016865 9.269641
			CHANNELS 3 Yrotation Xrotation Zrotation
			JOINT Chest3
			{
				OFFSET -0.000000 0.000001 8.374491
				CHANNELS 3 Yrotation Xrotation Zrotation
				JOINT Chest4
				{
					OFFSET -0.000000 0.000001 8.374493
					CHANNELS 3 Yrotation Xrotation Zrotation
					JOINT Neck
					{
						OFFSET -0.000000 0.000002 12.152554
						CHANNELS 3 Yrotation Xrotation Zrotation
						JOINT Head
						{
							OFFSET -0.000000 0.040101 7.802319
							CHANNELS 3 Yrotation Xrotation Zrotation
							End Site
							{
								OFFSET -0.000000 0.020947 14.853096
							}
						}
					}
					JOINT RightCollar
					{
						OFFSET 2.894404 0.000001 6.791374
						CHANNELS 3 Yrotation Xrotation Zrotation
						JOINT RightShoulder
						{
							OFFSET 13.574684 0.000001 0.000000
							CHANNELS 3 Yrotation Xrotation Zrotation
							JOINT RightElbow
							{
								OFFSET 23.923903 0.000002 0.000000
								CHANNELS 3 Yrotation Xrotation Zrotation
								JOINT RightWrist
								{
									OFFSET 19.846718 0.012767 0.000000
									CHANNELS 3 Yrotation Xrotation Zrotation
									End Site
									{
										OFFSET 14.973145 0.000001 0.000000
									}
								}
							}
						}
					}
					JOINT LeftCollar
					{
						OFFSET -2.894404 0.000001 6.791374
						CHANNELS 3 Yrotation Xrotation Zrotation
						JOINT LeftShoulder
						{
							OFFSET -13.574684 -0.000001 0.000000
							CHANNELS 3 Yrotation Xrotation Zrotation
							JOINT LeftElbow
							{
								OFFSET -23.923903 -0.000002 0.000000
								CHANNELS 3 Yrotation Xrotation Zrotation
								JOINT LeftWrist
								{
									OFFSET -19.846718 0.012763 0.000000
									CHANNELS 3 Yrotation Xrotation Zrotation
									End Site
									{
										OFFSET -14.973145 -0.000001 0.000000
									}
								}
							}
						}
					}
				}
			}
		}
	}
	JOINT RightHip
	{
		OFFSET 9.469263 0.004643 0.045487
		CHANNELS 3 Yrotation Xrotation Zrotation
		JOINT RightKnee
		{
			OFFSET 0.000000 0.002661 -40.478676
			CHANNELS 3 Yrotation Xrotation Zrotation
			JOINT RightAnkle
			{
				OFFSET 0.000000 0.049106 -35.224068
				CHANNELS 3 Yrotation Xrotation Zrotation
				JOINT RightToe
				{
					OFFSET -0.000001 12.539529 -6.151390
					CHANNELS 3 Yrotation Xrotation Zrotation
					End Site
					{
						OFFSET -0.000001 5.044994 -1.291870
					}
				}
			}
		}
	}
	JOINT LeftHip
	{
		OFFSET -9.469263 0.004641 0.045487
		CHANNELS 3 Yrotation Xrotation Zrotation
		JOINT LeftKnee
		{
			OFFSET 0.000000 0.002661 -40.478676
			CHANNELS 3 Yrotation Xrotation Zrotation
			JOINT LeftAnkle
			{
				OFFSET 0.000000 0.049106 -35.224068
				CHANNELS 3 Yrotation Xrotation Zrotation
				JOINT LeftToe
				{
					OFFSET -0.000001 12.539529 -6.151390
					CHANNELS 3 Yrotation Xrotation Zrotation
					End Site
					{
						OFFSET -0.000001 5.044994 -1.291870
					}
				}
			}
		}
	}
}
MOTION
Frames: 7
Frame Time: 0.016667
11.383519 5.580143 82.928696 -6.620914 -3.050065 -115.364887 0.645230 -3.794982 4.654701 0.308394 -1.677760 2.071154 0.308394 -1.677761 2.071156 0.236969 -1.257294 1.554104 2.656441 -24.738141 -3.997183 3.781286 -9.720445 -6.510669 6.093164 -0.314739 -9.346832 82.250927 4.274655 25.668116 -7.804695 -18.052291 13.195598 -58.969920 21.957928 37.357320 -12.506975 -5.535997 -17.144623 -63.497707 -4.859538 -26.407671 4.610000 -17.561786 5.849594 72.724842 -1.405589 -63.185124 -0.260413 -10.711136 -0.833132 0.141460 -1.009164 -0.305997 0.766782 4.571620 3.760966 -0.028621 -0.070468 -0.004332 -0.394531 -11.286674 2.260607 0.802870 -0.558299 -2.107077 -0.681216 4.536979 3.301169 -0.092587 -0.031695 -0.002849 
11.374413 5.543746 82.927879 -6.625714 -3.016456 -115.292350 0.632897 -3.751366 4.716350 0.302373 -1.658394 2.097892 0.302374 -1.658394 2.097894 0.232462 -1.242775 1.574133 2.562941 -24.666672 -3.664941 3.692597 -9.590012 -5.937443 6.153323 -0.190248 -9.290662 82.280837 3.486395 25.187721 -6.857570 -17.621955 12.270539 -59.107726 20.927713 35.965276 -12.448875 -5.567518 -17.117414 -63.282044 -4.357898 -26.543549 4.902408 -16.627074 6.826469 72.671717 -1.841519 -62.598991 -0.262108 -10.708285 -0.848232 0.162559 -1.027817 -0.333405 0.730721 4.598872 3.730622 -0.025606 -0.067251 -0.002014 -0.388174 -11.260238 2.250739 0.809366 -0.587535 -2.141698 -0.692939 4.556724 3.249353 -0.089757 -0.031784 -0.004201 
11.366283 5.505550 82.927170 -6.625246 -2.979614 -115.213325 0.623256 -3.698362 4.787291 0.297545 -1.634420 2.128305 0.297545 -1.634420 2.128305 0.228839 -1.224797 1.596917 2.470871 -24.587998 -3.332548 3.606868 -9.446480 -5.363437 6.198802 -0.055114 -9.221778 82.290584 2.730257 24.659286 -5.863641 -17.100070 11.457100 -59.175468 19.839874 34.648119 -12.428128 -5.567332 -17.096836 -62.998687 -3.863944 -26.698267 5.197788 -15.902473 7.743013 72.599296 -2.575690 -61.939721 -0.258576 -10.701626 -0.855839 0.181800 -1.044355 -0.370849 0.688570 4.626130 3.686972 -0.020474 -0.064103 -0.000642 -0.376526 -11.229639 2.243829 0.805335 -0.613345 -2.183532 -0.700190 4.577222 3.219007 -0.086490 -0.033931 -0.004750 
11.357156 5.466755 82.926552 -6.626849 -2.939277 -115.119574 0.610722 -3.661051 4.864107 0.291757 -1.617882 2.161426 0.291757 -1.617882 2.161427 0.224529 -1.212398 1.621737 2.381986 -24.490722 -2.995633 3.528125 -9.268669 -4.780175 6.243419 0.091064 -9.106281 82.295221 1.971100 24.145547 -4.900012 -16.465747 10.741745 -59.260825 18.823880 33.293228 -12.397272 -5.475187 -17.087011 -62.690400 -3.462444 -26.861852 5.492250 -15.044328 8.603951 72.396460 -3.379211 -60.931892 -0.259312 -10.693916 -0.873231 0.205288 -1.068067 -0.407618 0.641925 4.659874 3.643886 -0.013923 -0.062076 0.000693 -0.364748 -11.201579 2.225086 0.800972 -0.630242 -2.241462 -0.708213 4.592507 3.204218 -0.083482 -0.036872 -0.005752 
11.348428 5.429760 82.927139 -6.633861 -2.899100 -115.013296 0.607811 -3.641372 4.931935 0.290685 -1.609361 2.190781 0.290684 -1.609362 2.190782 0.223772 -1.205998 1.643746 2.281604 -24.385534 -2.646407 3.432440 -9.076775 -4.177473 6.261596 0.224571 -8.968843 82.269226 1.101134 23.668904 -3.973118 -15.671859 10.149701 -59.326244 17.878298 31.851132 -12.353889 -5.382889 -17.108557 -62.410498 -3.121358 -27.097982 5.798853 -13.707737 9.333997 72.039050 -4.150742 -59.368667 -0.261273 -10.693375 -0.893778 0.230285 -1.088747 -0.452261 0.596389 4.690206 3.606287 -0.009583 -0.058255 0.002055 -0.356856 -11.173495 2.186409 0.803749 -0.654790 -2.286087 -0.718556 4.609852 3.166488 -0.082088 -0.038609 -0.007566 
11.340455 5.393386 82.928879 -6.637844 -2.860120 -114.894328 0.607231 -3.622644 5.001555 0.291428 -1.601180 2.220704 0.291428 -1.601181 2.220703 0.224380 -1.199845 1.666185 2.178734 -24.283541 -2.289247 3.335186 -8.891220 -3.561095 6.278182 0.411913 -8.828870 82.271828 0.241811 23.141159 -2.971893 -14.639387 9.687157 -59.298890 16.940244 30.358176 -12.264752 -5.359011 -17.168801 -62.146218 -2.750189 -27.451317 6.144020 -12.079013 10.002456 71.582985 -4.714685 -57.561078 -0.257511 -10.689694 -0.916223 0.251770 -1.114955 -0.499430 0.556581 4.722824 3.547565 -0.009077 -0.052677 0.002517 -0.350424 -11.139070 2.131566 0.811754 -0.682517 -2.318531 -0.727217 4.625585 3.152354 -0.082104 -0.039445 -0.008202 
11.333680 5.358315 82.930977 -6.639752 -2.819773 -114.768843 0.617121 -3.592977 5.065556 0.296623 -1.588196 2.247872 0.296623 -1.588196 2.247876 0.228300 -1.190076 1.686571 2.059964 -24.185626 -1.913712 3.214924 -8.713853 -2.915681 6.275171 0.500058 -8.716288 82.268160 -0.553035 22.756206 -1.886597 -13.659626 9.287359 -59.159711 16.092441 28.759283 -12.211064 -5.315382 -17.190034 -61.892838 -2.288495 -27.836900 6.517578 -10.603300 10.589211 70.976601 -5.319215 -55.780946 -0.259852 -10.682506 -0.946137 0.283345 -1.145780 -0.553520 0.516862 4.758104 3.498534 -0.010754 -0.047020 0.002578 -0.344764 -11.106198 2.093298 0.821025 -0.700922 -2.362895 -0.736165 4.635268 3.144403 -0.082473 -0.039356 -0.008527 
